<svg width="20" height="20" viewBox="0 0 20 20" fill="none" xmlns="http://www.w3.org/2000/svg">
<path fill-rule="evenodd" clip-rule="evenodd" d="M3.07463 0.0482539C2.90821 0.07788 2.64588 0.145198 2.4917 0.197837C2.33752 0.250476 2.09529 0.355524 1.9534 0.431291C1.8115 0.507019 1.60741 0.633857 1.49985 0.713102C1.39229 0.792347 1.20952 0.949843 1.09367 1.06303C0.977854 1.17626 0.816711 1.3549 0.735631 1.46002C0.654552 1.56515 0.524777 1.76462 0.447295 1.90331C0.369774 2.042 0.262606 2.2779 0.209101 2.42752C0.155634 2.57718 0.0849972 2.85169 0.0521819 3.03758C-7.22475e-05 3.33343 -0.00605644 4.19258 0.00415189 9.92946C0.014986 16.0294 0.02054 16.5005 0.084254 16.7318C0.12188 16.8685 0.196194 17.0924 0.249347 17.2295C0.302501 17.3666 0.423358 17.6075 0.517932 17.7647C0.612467 17.922 0.779203 18.15 0.888443 18.2715C0.997684 18.393 1.18871 18.5795 1.31301 18.6861C1.43727 18.7926 1.65731 18.9486 1.80195 19.0328C1.94663 19.117 2.18615 19.2341 2.33423 19.293C2.48235 19.3519 2.74241 19.4319 2.91216 19.4708C3.20616 19.5381 3.54202 19.5415 10.0068 19.5415C16.4716 19.5415 16.8074 19.5381 17.1014 19.4708C17.2712 19.4319 17.5312 19.3519 17.6793 19.293C17.8274 19.2341 18.0669 19.117 18.2116 19.0328C18.3563 18.9486 18.5763 18.7926 18.7006 18.6861C18.8249 18.5795 19.0157 18.393 19.1247 18.2715C19.2337 18.15 19.3934 17.935 19.4795 17.7936C19.5657 17.6522 19.6855 17.4181 19.7457 17.2734C19.806 17.1286 19.8879 16.8744 19.9276 16.7085C19.9966 16.4212 20 16.0929 20 9.77445C20 3.45598 19.9966 3.12772 19.9276 2.84037C19.8879 2.67446 19.806 2.42029 19.7457 2.27553C19.6855 2.1308 19.5657 1.89669 19.4795 1.75529C19.3934 1.61393 19.2337 1.39886 19.1247 1.27741C19.0157 1.15593 18.8249 0.969224 18.7006 0.862456C18.5763 0.755687 18.343 0.592724 18.1821 0.500329C18.0212 0.407896 17.7748 0.289773 17.6345 0.237823C17.4942 0.185872 17.2651 0.11324 17.1252 0.0764273C16.8883 0.0140787 16.4123 0.00903272 10.1241 0.00196069C4.46547 -0.00438503 3.32843 0.00306927 3.07463 0.0482539ZM16.8042 1.19496C16.97 1.22787 17.2543 1.32462 17.436 1.40991C17.6993 1.53353 17.8311 1.62834 18.0863 1.87781C18.3415 2.12724 18.4385 2.25603 18.565 2.51341C18.6523 2.69094 18.7513 2.96881 18.7849 3.13086C18.8391 3.3913 18.8462 4.16273 18.8462 9.77445C18.8462 15.3724 18.839 16.1582 18.7852 16.418C18.7515 16.5813 18.6518 16.8576 18.5619 17.0376C18.4344 17.2929 18.3321 17.4285 18.0851 17.6699C17.838 17.9113 17.6993 18.0113 17.4381 18.136C17.254 18.2239 16.9712 18.3212 16.8042 18.3542C16.5384 18.4068 15.7344 18.4138 10.0068 18.4138C4.27917 18.4138 3.47518 18.4068 3.20937 18.3542C3.04236 18.3212 2.75962 18.2239 2.57544 18.136C2.31429 18.0113 2.17555 17.9113 1.92852 17.6699C1.68149 17.4285 1.57921 17.2929 1.45166 17.0376C1.36174 16.8576 1.26212 16.5813 1.22837 16.418C1.17459 16.1582 1.16739 15.3724 1.16739 9.77445C1.16739 4.17645 1.17459 3.39065 1.22837 3.13086C1.26212 2.96763 1.36174 2.69128 1.45166 2.51127C1.57921 2.25603 1.68149 2.12044 1.92852 1.87899C2.17528 1.63782 2.31456 1.5374 2.57544 1.4127C2.75829 1.32531 3.0311 1.22848 3.18168 1.19756C3.416 1.14943 4.39616 1.14086 9.9791 1.13823C15.7543 1.13544 16.5373 1.14197 16.8042 1.19496ZM9.85758 3.69743C9.78623 3.7131 9.68278 3.76654 9.62763 3.81624C9.57248 3.86593 9.50322 3.96192 9.47373 4.02958C9.42976 4.13039 9.4201 4.71278 9.4201 7.2589V10.3652L8.29562 9.26989C7.33506 8.33424 7.15022 8.17085 7.02752 8.14895C6.94855 8.13484 6.83055 8.13473 6.76535 8.14876C6.70015 8.16275 6.60163 8.20893 6.5464 8.25136C6.49117 8.29383 6.41995 8.37781 6.38811 8.43798C6.35627 8.49815 6.33023 8.63814 6.33023 8.74908V8.95073L8.02383 10.6073C9.453 12.0052 9.74 12.2688 9.86211 12.2957C9.94167 12.3133 10.0719 12.3133 10.1515 12.2957C10.2736 12.2688 10.5606 12.0052 11.9897 10.6073L13.6834 8.95073V8.74908C13.6834 8.63814 13.6573 8.49815 13.6255 8.43798C13.5936 8.37781 13.5214 8.2931 13.4651 8.24975C13.4087 8.20637 13.3041 8.16019 13.2327 8.14711C13.1612 8.134 13.0442 8.1353 12.9726 8.14998C12.8699 8.17104 12.6052 8.40755 11.7186 9.27031L10.5948 10.3639L10.5844 7.20493C10.574 4.08203 10.573 4.04472 10.4933 3.9404C10.4489 3.88233 10.3697 3.80542 10.3173 3.76945C10.2648 3.73351 10.1691 3.69616 10.1046 3.68649C10.04 3.67686 9.92888 3.68175 9.85758 3.69743ZM4.04626 14.8175C3.98399 14.8576 3.89881 14.9433 3.85695 15.0078C3.81307 15.0756 3.77979 15.1965 3.77826 15.2936C3.7767 15.3951 3.8058 15.5122 3.85164 15.589C3.89341 15.6589 3.98857 15.7511 4.06308 15.7939C4.19774 15.8712 4.23541 15.8717 10.0068 15.8717C15.7782 15.8717 15.8158 15.8712 15.9505 15.7939C16.025 15.7511 16.1202 15.6589 16.1619 15.589C16.2076 15.5126 16.2369 15.3951 16.2353 15.2946C16.2338 15.1973 16.1997 15.0752 16.1537 15.0026C16.1102 14.9339 16.0223 14.8477 15.9583 14.8109C15.849 14.748 15.4937 14.744 10.0008 14.7443C4.31868 14.7445 4.1564 14.7465 4.04626 14.8175Z" fill="white"/>
</svg>
