<svg width="20" height="20" viewBox="0 0 20 20" fill="none" xmlns="http://www.w3.org/2000/svg">
<path d="M16.8412 8.6041H16.3507V4.20583C16.3507 3.88045 16.2231 3.5684 15.996 3.33832C15.7688 3.10824 15.4608 2.97898 15.1395 2.97898H11.5061C11.4678 2.24054 11.1745 1.53922 10.6774 0.997624C10.1804 0.456031 9.51127 0.108621 8.78699 0.0161274C8.37273 -0.0270754 7.95412 0.0167494 7.55734 0.144863C7.16055 0.272976 6.79412 0.482622 6.48096 0.760697C6.16779 1.03877 5.91462 1.37929 5.73727 1.76098C5.55992 2.14266 5.46221 2.5573 5.45024 2.97898H1.21116C0.889943 2.97898 0.581879 3.10824 0.354742 3.33832C0.127604 3.5684 0 3.88045 0 4.20583V9.21753H1.70169C2.16766 9.20382 2.62227 9.36452 2.97865 9.66893C3.33502 9.97334 3.56816 10.4001 3.63349 10.8676C3.65707 11.1242 3.6272 11.3829 3.54583 11.627C3.46447 11.8711 3.33341 12.0951 3.16114 12.2847C2.99183 12.4764 2.7847 12.6301 2.55314 12.7357C2.32158 12.8414 2.07071 12.8967 1.81675 12.8981H0V18.3146C0 18.64 0.127604 18.9521 0.354742 19.1822C0.581879 19.4122 0.889943 19.5415 1.21116 19.5415H15.1395C15.4608 19.5415 15.7688 19.4122 15.996 19.1822C16.2231 18.9521 16.3507 18.64 16.3507 18.3146V14.7384H16.9563C17.3813 14.7406 17.802 14.6522 18.1911 14.4789C18.5801 14.3056 18.9288 14.0512 19.2144 13.7324C19.5 13.4136 19.7162 13.0374 19.8488 12.6284C19.9814 12.2194 20.0276 11.7867 19.9842 11.3584C19.8861 10.5883 19.5113 9.88174 18.9316 9.37369C18.3519 8.86565 17.6077 8.59168 16.8412 8.6041V8.6041ZM18.3007 12.8981C18.1314 13.0898 17.9243 13.2435 17.6927 13.3492C17.4611 13.4548 17.2103 13.5101 16.9563 13.5115H15.1395V18.3146H1.21116V14.1249H1.81675C2.24175 14.1272 2.66247 14.0388 3.05152 13.8655C3.44057 13.6921 3.78924 13.4378 4.07485 13.119C4.36047 12.8002 4.57662 12.424 4.70925 12.015C4.84188 11.606 4.88801 11.1732 4.84466 10.745C4.74651 9.97484 4.3718 9.26831 3.79206 8.76026C3.21232 8.25222 2.46817 7.97825 1.70169 7.99068H1.21116V4.20583H6.6614V3.08326C6.66276 2.826 6.71736 2.57189 6.82167 2.33733C6.92598 2.10276 7.07768 1.89296 7.26698 1.72145C7.4541 1.54695 7.67531 1.4142 7.91628 1.33177C8.15726 1.24935 8.41263 1.2191 8.66588 1.24298C9.12744 1.30916 9.54875 1.54532 9.84926 1.90631C10.1498 2.2673 10.3084 2.72781 10.2949 3.19981V4.20583H15.1395V9.83096H16.8412C17.3072 9.81724 17.7618 9.97795 18.1182 10.2824C18.4746 10.5868 18.7077 11.0135 18.773 11.4811C18.7966 11.7376 18.7668 11.9963 18.6854 12.2404C18.604 12.4845 18.473 12.7085 18.3007 12.8981Z" fill="white"/>
</svg>
