<svg width="25" height="25" viewBox="0 0 25 25" fill="none" xmlns="http://www.w3.org/2000/svg">
<path fill-rule="evenodd" clip-rule="evenodd" d="M5.1063 0.0880713C3.52053 0.258534 2.47338 0.762857 1.46131 1.84357C1.07418 2.25702 0.928231 2.46976 0.668475 2.99937C0.284453 3.78249 0.139202 4.35946 0.0494211 5.45879C-0.0421715 6.58061 0.00418126 19.6565 0.101736 20.2042C0.241317 20.988 0.359621 21.361 0.668827 21.9921C0.928466 22.5221 1.07383 22.7341 1.46131 23.1479C2.49407 24.2507 3.50539 24.7274 5.19398 24.9075C6.35148 25.0308 18.6492 25.0308 19.8067 24.9075C21.3657 24.7412 22.3227 24.3308 23.2765 23.4197C24.3405 22.4031 24.793 21.352 24.9512 19.5293C25.042 18.4834 24.9954 5.32851 24.899 4.78722C24.7594 4.0034 24.6411 3.63048 24.3319 2.99937C24.0722 2.46935 23.9269 2.25737 23.5394 1.84357C22.5062 0.740316 21.4813 0.256899 19.8067 0.0829908C18.7125 -0.0306512 6.1707 -0.0262714 5.1063 0.0880713ZM18.7546 9.6775V13.1078L17.6007 14.2617L16.4469 15.4156H15.1901H13.9333L12.6031 16.7437L11.2729 18.0718V16.7437V15.4156H10.0162H8.75949V10.8314V6.24716H13.757H18.7546V9.6775Z" fill="#9146FF"/>
<path fill-rule="evenodd" clip-rule="evenodd" d="M5.02679 8.1417L6.58995 6.57646L8.1531 5.01123H14.0717H19.9902V9.3842V13.7572L17.2866 16.4625L14.5831 19.1678H13.3269H12.0709L10.4192 20.8199L8.76765 22.4722V20.8199V19.1678H6.89722H5.02679V13.6547V8.1417ZM18.7628 13.1122V9.67593V6.23969H13.7652H8.76765V10.8318V15.406H11.281V16.7177V18.0631L12.567 16.7693L13.9406 15.406L15.2265 15.4239H16.4551L17.6089 14.268L18.7628 13.1122Z" fill="black"/>
<path d="M15.6649 10.6382V12.5102H16.2494H16.8339V10.6382V8.76628H16.2494H15.6649V10.6382Z" fill="black"/>
<path d="M12.5085 10.6382V12.5102H13.1222H13.736V10.6382V8.76628H13.1222H12.5085V10.6382Z" fill="black"/>
<path fill-rule="evenodd" clip-rule="evenodd" d="M18.7628 9.67593V13.1122L17.6089 14.268L16.4551 15.4239H15.2265L13.9406 15.406L12.567 16.7693L11.281 18.0631V16.7177V15.406H8.76765V10.8318V6.23969H13.7652H18.7628V9.67593ZM12.5085 12.5102V10.6382V8.76628H13.1222H13.736V10.6382V12.5102H13.1222H12.5085ZM15.6649 12.5102V10.6382V8.76628H16.2494H16.8339V10.6382V12.5102H16.2494H15.6649Z" fill="white"/>
</svg>
