<svg width="28" height="20" viewBox="0 0 28 20" fill="none" xmlns="http://www.w3.org/2000/svg">
<path d="M27.3815 3.11944C27.2209 2.51651 26.9076 1.96683 26.4728 1.52514C26.0381 1.08346 25.497 0.765179 24.9035 0.602C22.7307 0 13.9857 0 13.9857 0C13.9857 0 5.24027 0.0182222 3.06743 0.620222C2.47391 0.783411 1.93282 1.10171 1.49806 1.54341C1.06329 1.98512 0.750017 2.53482 0.58943 3.13778C-0.0678042 7.05978 -0.322757 13.036 0.607477 16.8011C0.768081 17.4041 1.08136 17.9537 1.51613 18.3954C1.95089 18.8371 2.49197 19.1554 3.08548 19.3186C5.25832 19.9206 14.0035 19.9206 14.0035 19.9206C14.0035 19.9206 22.7486 19.9206 24.9213 19.3186C25.5149 19.1554 26.056 18.8371 26.4907 18.3954C26.9255 17.9538 27.2388 17.4041 27.3994 16.8011C28.0927 12.8736 28.3063 6.90111 27.3815 3.11956V3.11944Z" fill="#FF0000"/>
<path d="M11.2023 14.2287L18.4569 9.96007L11.2023 5.69141V14.2287Z" fill="white"/>
</svg>