<?xml version="1.0" encoding="utf-8"?>
<!-- Generator: Adobe Illustrator 23.1.0, SVG Export Plug-In . SVG Version: 6.00 Build 0)  -->
<svg version="1.1" id="Layer_1" xmlns="http://www.w3.org/2000/svg" xmlns:xlink="http://www.w3.org/1999/xlink" x="0px" y="0px"
	 viewBox="0 0 8192 8192" style="enable-background:new 0 0 8192 8192;" xml:space="preserve">
<style type="text/css">
	.st0{fill:url(#SVGID_1_);}
	.st1{fill:#FFFFFF;}
</style>
<linearGradient id="SVGID_1_" gradientUnits="userSpaceOnUse" x1="1296.0939" y1="6895.853" x2="6895.8945" y2="1296.0526">
	<stop  offset="1.385225e-07" style="stop-color:#ECDFC6"/>
	<stop  offset="0.2374" style="stop-color:#FFB115"/>
	<stop  offset="0.5039" style="stop-color:#FFC42A"/>
	<stop  offset="0.7961" style="stop-color:#FFB115"/>
	<stop  offset="1" style="stop-color:#ECDFC6"/>
</linearGradient>
<path class="st0" d="M7754.1,3296.1c-85.1-119-165.6-231.5-196-325.1c-94-289.3,62.3-827.6-227.4-1225.8
	c-290.5-399.2-856.5-420.1-1095.4-593.9c-237.9-173.1-428.4-704.8-903.6-859.1C4869.3,142.1,4405.2,456.5,4096,456.5
	c-311,0-772.4-314.7-1235.8-164.2c-475,154.2-666.4,686.5-903.7,859.1c-241.7,175.9-803.9,193.3-1095.4,593.9
	c-289,397.1-134.1,938.3-227.4,1225.7c-30.4,93.6-110.8,206-196,325.1c-159.5,223-340.2,475.7-340.2,799.9s180.8,576.9,340.2,799.9
	c85.1,119,165.6,231.4,196,325.1c93.9,289.2-62.3,827.6,227.4,1225.7c290.5,399.2,856.5,420.1,1095.4,594
	c237.9,173.1,427.9,704.7,903.6,859.1c462.5,150.1,926.8-164.2,1235.8-164.2c247.9,0,603.2,205,968.9,205
	c673.7,0,895.2-699.6,1170.6-900c241.7-175.9,803.6-192.9,1095.4-594c289.1-397.1,134.1-938.3,227.4-1225.7
	c30.4-93.6,110.8-206,196-325.1c159.5-223,340.2-475.7,340.2-799.9C8094.4,3771.8,7913.6,3519,7754.1,3296.1z"/>
<path class="st1" d="M6209.7,3522.9c0.7,12.6-0.2,25.5-3.4,38.3l-283,1132.1c-14.3,57-65.4,97.2-124.2,97.5l-1698.2,8.6
	c-0.2,0-0.4,0-0.7,0H2402.1c-59.1,0-110.6-40.2-124.8-97.6l-283-1136.4c-3.3-13.1-4.2-26.3-3.4-39.2
	c-109.5-34.5-189.2-137-189.2-257.7c0-149,121.2-270.2,270.2-270.2s270.2,121.2,270.2,270.2c0,83.9-38.4,158.9-98.6,208.6l354.4,357
	c89.5,90.3,213.8,142,341,142c150.3,0,293.7-71.4,384-191l582.4-771.6c-48.9-48.9-79.2-116.4-79.2-191
	c0-149,121.2-270.2,270.2-270.2c149,0,270.2,121.2,270.2,270.2c0,72.3-28.7,137.8-75,186.4c0.2,0.2,0.3,0.4,0.5,0.6l578.1,773.7
	c90.2,120.8,234,192.8,384.9,192.8c128.3,0,249-50,339.7-140.7l356.6-356.6c-61.4-49.6-100.9-125.3-100.9-210.3
	c0-149,121.2-270.2,270.2-270.2s270.2,121.2,270.2,270.2C6390.3,3385.8,6314.7,3485.9,6209.7,3522.9z M5895.7,5202.4
	c0-71-57.6-128.6-128.6-128.6H2439.3c-71,0-128.6,57.6-128.6,128.6v308.8c0,71,57.6,128.6,128.6,128.6H5767
	c71,0,128.6-57.6,128.6-128.6L5895.7,5202.4L5895.7,5202.4z"/>
</svg>
